<?xml version="1.0" standalone="no"?>
<!DOCTYPE svg PUBLIC "-//W3C//DTD SVG 20010904//EN"
 "http://www.w3.org/TR/2001/REC-SVG-20010904/DTD/svg10.dtd">
<svg version="1.0" xmlns="http://www.w3.org/2000/svg"
 width="568.000000pt" height="1278.000000pt" viewBox="0 0 568.000000 1278.000000"
 preserveAspectRatio="xMidYMid meet">
<metadata>
Created by potrace 1.16, written by Peter Selinger 2001-2019
</metadata>
<g transform="translate(0.000000,1278.000000) scale(0.100000,-0.100000)"
fill="#000000" stroke="none">
<path d="M2655 12730 c-715 -60 -1365 -421 -1795 -995 -264 -352 -429 -771
-482 -1220 -19 -163 -19 -4962 0 -5115 53 -422 181 -771 407 -1110 388 -584
1000 -975 1700 -1086 156 -24 491 -30 659 -10 583 68 1103 325 1511 748 371
384 586 820 678 1373 l21 130 4 2410 c2 1592 0 2459 -7 2555 -43 598 -281
1134 -696 1569 -239 251 -596 483 -930 606 -139 51 -341 102 -498 126 -153 22
-427 31 -572 19z m433 -431 c450 -49 871 -247 1200 -564 290 -279 481 -602
577 -979 69 -269 65 -118 65 -2794 0 -1554 -4 -2449 -10 -2507 -101 -899 -762
-1627 -1646 -1810 -909 -188 -1842 265 -2261 1100 -119 236 -183 457 -213 727
-14 134 -14 4826 0 4969 97 959 838 1725 1795 1853 124 17 364 20 493 5z"/>
<path d="M275 3939 c-88 -61 -164 -114 -168 -118 -11 -11 167 -245 290 -384
367 -409 877 -741 1414 -921 206 -68 468 -126 664 -146 61 -6 125 -13 143 -16
l32 -5 0 -929 0 -930 -730 0 -730 0 0 -215 0 -215 1670 0 1670 0 0 215 0 215
-730 0 -730 0 0 930 0 929 33 5 c17 2 93 11 167 20 801 91 1564 498 2111 1126
83 95 229 292 223 301 -6 11 -345 242 -348 237 -1 -1 -42 -57 -91 -123 -106
-143 -356 -398 -502 -513 -644 -508 -1467 -723 -2263 -592 -749 123 -1408 524
-1863 1133 -44 59 -85 107 -91 106 -6 0 -83 -50 -171 -110z"/>
</g>
</svg>
