<?xml version="1.0" encoding="iso-8859-1"?>
<!-- Generator: Adobe Illustrator 19.0.0, SVG Export Plug-In . SVG Version: 6.00 Build 0)  -->
<svg version="1.1" id="Capa_1" xmlns="http://www.w3.org/2000/svg" xmlns:xlink="http://www.w3.org/1999/xlink" x="0px" y="0px"
	 viewBox="0 0 488 488" style="enable-background:new 0 0 488 488;" xml:space="preserve">
<g>
	<g>
		<path d="M350.104,343.528l-13.256-8.96C316.042,365.458,281.243,383.985,244,384c-36.977-0.022-71.563-18.281-92.44-48.8
			l-13.2,9.04c22.268,32.544,58.285,53.018,97.64,55.504V472h-56v16h128v-16h-56v-72.248
			C291.655,397.253,327.902,376.48,350.104,343.528z"/>
	</g>
</g>
<g>
	<g>
		<path d="M244,0c-53.019,0-96,42.981-96,96v176c0.057,52.996,43.004,95.943,96,96c52.996-0.057,95.943-43.004,96-96V96
			C340,42.981,297.019,0,244,0z M324,272c0,44.183-35.817,80-80,80s-80-35.817-80-80V96c0-44.183,35.817-80,80-80s80,35.817,80,80
			V272z"/>
	</g>
</g>
<g>
	<g>
		<path d="M423.322,29.29c-0.102-0.102-0.204-0.204-0.306-0.306l0,0l-11.312,11.312c74.947,74.789,75.075,196.174,0.286,271.122
			c-0.095,0.096-0.191,0.191-0.286,0.286l11.312,11.312C504.211,241.99,504.348,110.484,423.322,29.29z"/>
	</g>
</g>
<g>
	<g>
		<path d="M76.01,40.582c0.095-0.096,0.191-0.191,0.286-0.286L64.984,28.984c-81.195,81.026-81.332,212.532-0.306,293.726
			c0.102,0.102,0.204,0.204,0.306,0.306l11.312-11.312C1.349,236.915,1.221,115.53,76.01,40.582z"/>
	</g>
</g>
<g>
	<g>
		<path d="M98.584,63.288c0.117-0.117,0.234-0.235,0.352-0.352L87.624,51.624c-68.691,68.492-68.852,179.701-0.36,248.392
			c0.12,0.12,0.24,0.24,0.36,0.36l11.312-11.312C36.492,226.815,36.335,125.731,98.584,63.288z"/>
	</g>
</g>
<g>
	<g>
		<path d="M121.496,85.496l-11.312-11.312c-56.226,56.234-56.226,147.398,0,203.632l11.312-11.312
			C71.516,216.518,71.516,135.482,121.496,85.496z"/>
	</g>
</g>
<g>
	<g>
		<path d="M400.736,51.984c-0.12-0.12-0.24-0.24-0.36-0.36l-11.312,11.312c62.443,62.249,62.601,163.333,0.352,225.776
			c-0.117,0.117-0.234,0.235-0.352,0.352l11.312,11.312C469.067,231.884,469.228,120.675,400.736,51.984z"/>
	</g>
</g>
<g>
	<g>
		<path d="M377.816,74.184l-11.32,11.312c49.984,49.953,50.009,130.967,0.057,180.951c-0.019,0.019-0.038,0.038-0.057,0.057
			l11.32,11.312C434.042,221.582,434.042,130.418,377.816,74.184z"/>
	</g>
</g>
<g>
</g>
<g>
</g>
<g>
</g>
<g>
</g>
<g>
</g>
<g>
</g>
<g>
</g>
<g>
</g>
<g>
</g>
<g>
</g>
<g>
</g>
<g>
</g>
<g>
</g>
<g>
</g>
<g>
</g>
</svg>
